<?xml version="1.0" encoding="UTF-8"?>
<svg xmlns="http://www.w3.org/2000/svg" viewBox="0 0 360 360" fill="currentColor">
  <path d="M11.72803,161.99996h-10.82016v-161.95568h10.8202v0.04428l17.49388,0.02655c0.64737,0.00886 1.26945,0.09738 1.88181,0.23022c0.14386,0.03541 0.28579,0.07083 0.42768,0.10624c0.59485,0.15939 1.17612,0.37188 1.7379,0.66406c0.07969,0.03541 0.15552,0.09738 0.23328,0.14166c1.78069,0.97398 3.38836,2.59434 4.82301,4.84335c0.0855,0.13279 0.17302,0.2479 0.25659,0.38961c0.4374,0.71721 0.85531,1.50525 1.25973,2.33757c0.0972,0.20367 0.19246,0.41616 0.28773,0.62865c1.71652,3.76312 3.11814,8.65962 4.19706,14.68057c0.06412,0.35419 0.13023,0.71721 0.19246,1.08909c0.23715,1.399 0.46071,2.84224 0.66483,4.36522c0.03888,0.28332 0.07195,0.59323 0.10885,0.88542c0.63765,4.95846 1.09638,10.51015 1.38024,16.65513c0.01746,0.39843 0.03888,0.77917 0.05638,1.17765c0.08167,1.92141 0.14188,3.90478 0.18855,5.9413c0.01165,0.54013 0.02137,1.08909 0.03109,1.64691c0.03888,2.10735 0.06804,4.24125 0.06997,6.46371l-0.03501,41.93441c0,0.09738 -0.0058,0.18594 -0.0058,0.28332c-0.03501,2.48809 -0.09333,4.88763 -0.17689,7.21633c-0.00972,0.25677 -0.01944,0.5224 -0.02916,0.78804c-0.0855,2.21359 -0.19048,4.36522 -0.31882,6.43716c-0.02137,0.36301 -0.0486,0.70834 -0.07195,1.07136c-0.13023,1.92141 -0.27409,3.8074 -0.44325,5.60484c-0.04275,0.47812 -0.09526,0.9297 -0.14188,1.39014c-0.16524,1.63804 -0.3402,3.23185 -0.53847,4.74597c-0.07776,0.61096 -0.16911,1.17765 -0.25272,1.77088c-0.18855,1.31044 -0.37903,2.6032 -0.59098,3.81622c-0.13608,0.77917 -0.28962,1.49638 -0.43546,2.24014c-0.18855,0.94743 -0.37129,1.91254 -0.57735,2.78914c-0.23328,1.01826 -0.49185,1.94796 -0.74844,2.89539c-0.1458,0.5224 -0.27796,1.08909 -0.42961,1.58494c-3.09096,10.27993 -7.66705,15.31809 -13.66033,14.96394h-16.83486v0.10624zM26.7628,38.10046l-15.03279,-0.01773v85.78136h14.68291c3.17839,0.18594 5.60448,-2.48809 7.24329,-7.94241c0.08167,-0.25677 0.15165,-0.55782 0.22743,-0.84118c0.13608,-0.49585 0.27409,-0.99171 0.39852,-1.52293c0.10885,-0.47812 0.20412,-0.98284 0.30519,-1.48752c0.07582,-0.38961 0.15745,-0.77031 0.22941,-1.17765c0.11277,-0.64638 0.21384,-1.33699 0.31491,-2.02765c0.04275,-0.30991 0.09135,-0.61983 0.13414,-0.93856c0.10498,-0.80577 0.19827,-1.65577 0.28579,-2.51464c0.02331,-0.23908 0.05058,-0.47812 0.07384,-0.73489c0.08941,-0.95629 0.16717,-1.94796 0.23521,-2.97508c0.01363,-0.18594 0.02722,-0.37188 0.03888,-0.56668c0.06804,-1.09795 0.12244,-2.24014 0.16911,-3.40893c0.00391,-0.14166 0.00972,-0.28332 0.01557,-0.42502c0.04473,-1.23075 0.07384,-2.50578 0.09333,-3.82509c0,-0.05314 0.00193,-0.09738 0.00193,-0.15052l0.01944,-22.23337c-0.00391,-1.17765 -0.01746,-2.31097 -0.03888,-3.42666c-0.00391,-0.29218 -0.00972,-0.58437 -0.01557,-0.86773c-0.02529,-1.08022 -0.05832,-2.1339 -0.10107,-3.15216c-0.00778,-0.21249 -0.01944,-0.41616 -0.02916,-0.61983c-0.14971,-3.2584 -0.3946,-6.20694 -0.73093,-8.83669c-0.01944,-0.15052 -0.03694,-0.31878 -0.05832,-0.4693c-0.10692,-0.7969 -0.22743,-1.56721 -0.35185,-2.31097c-0.03303,-0.1948 -0.06804,-0.38961 -0.10305,-0.58437c-0.5715,-3.17871 -1.31413,-5.78191 -2.22583,-7.77415c-0.05058,-0.11511 -0.10107,-0.22135 -0.15165,-0.33646c-0.21384,-0.44271 -0.43546,-0.85887 -0.66676,-1.23961c-0.04473,-0.07083 -0.09135,-0.13279 -0.13608,-0.20367c-0.76207,-1.18647 -1.61347,-2.0542 -2.55829,-2.56779c-0.04275,-0.01773 -0.08167,-0.05314 -0.12442,-0.07083c-0.29745,-0.15939 -0.60457,-0.26563 -0.91953,-0.35419l-0.22743,-0.05314c-0.32463,-0.07083 -0.65511,-0.12397 -0.99922,-0.12397h0.00193z M90.00047,109.90073c-0.05247,0.07969 -0.10498,0.15939 -0.15552,0.23022l7.63402,51.84246l-11.44809,0.03541l-7.01194,-47.60121h-16.64824v47.60121h-10.8202v-161.95568h6.56482v-0.03541h23.99845v0.03541h0.80869v0.05314c4.234,-0.25677 7.46685,3.31155 9.64993,10.57216c0.10885,0.34533 0.20218,0.74376 0.30519,1.11564c0.18081,0.67293 0.36157,1.32817 0.52875,2.04538c0.14386,0.61983 0.27409,1.30158 0.4063,1.97451c0.10305,0.5224 0.2119,1.02712 0.30717,1.57608c0.15165,0.85887 0.28579,1.77088 0.41989,2.70058c0.05832,0.40729 0.12244,0.81459 0.17689,1.23961c0.13999,1.08022 0.26437,2.20473 0.38101,3.35583c0.03303,0.3276 0.06997,0.64638 0.10107,0.98284c0.11862,1.27503 0.21969,2.6032 0.31297,3.96675c0.01557,0.25677 0.03501,0.50472 0.05058,0.75262c0.09135,1.46097 0.1633,2.98395 0.22356,4.55116c0.00774,0.18594 0.01557,0.37188 0.02137,0.55782c0.05832,1.64691 0.10107,3.34696 0.12442,5.09125c0.00193,0.07083 0.00391,0.14166 0.00391,0.20367l0.02529,29.62678c-0.00193,1.56721 -0.02137,3.07246 -0.0486,4.56885c-0.00972,0.38074 -0.01363,0.77917 -0.02331,1.15992c-0.03303,1.43442 -0.07578,2.83342 -0.13216,4.19697c-0.01165,0.2745 -0.02722,0.54013 -0.04081,0.82345c-0.2002,4.33867 -0.52488,8.26114 -0.97393,11.7675c-0.02529,0.20367 -0.05058,0.42502 -0.07776,0.62865c-0.14386,1.06254 -0.30132,2.08962 -0.46849,3.08133c-0.04473,0.25677 -0.09135,0.51354 -0.13608,0.77031c-0.76396,4.24125 -1.75347,7.70332 -2.96653,10.36849c-0.0661,0.15052 -0.13414,0.30105 -0.20218,0.44271c-0.28579,0.59323 -0.58126,1.15105 -0.89032,1.65577v0.01773v0zM62.3707,33.42532v47.55693l17.31505,-0.00886h1.53769c0.18855,0 0.37323,-0.02655 0.5521,-0.06196c0.04275,-0.00886 0.08361,-0.02655 0.12636,-0.03541c0.17496,-0.05314 0.346,-0.11511 0.50931,-0.1948c0.02331,-0.01773 0.04473,-0.02655 0.06804,-0.04428c0.52294,-0.28332 0.99531,-0.75262 1.4152,-1.41669c0.02529,-0.03541 0.05058,-0.07083 0.07578,-0.11511c0.12834,-0.21249 0.25078,-0.43384 0.36936,-0.68179c0.02916,-0.06196 0.05638,-0.12397 0.0855,-0.18594c0.50346,-1.10682 0.91561,-2.55006 1.2325,-4.31208c0.01746,-0.10624 0.03694,-0.21249 0.05638,-0.31878c0.06804,-0.40729 0.13414,-0.84118 0.1944,-1.28389c0.01165,-0.07969 0.02137,-0.16825 0.03303,-0.25677c0.18666,-1.4521 0.32269,-3.08133 0.40432,-4.88763c0.0058,-0.11511 0.01363,-0.23022 0.01746,-0.34533c0.02331,-0.56668 0.04275,-1.15105 0.05638,-1.74433c0.00193,-0.15939 0.0058,-0.3276 0.00774,-0.48699c0.01165,-0.61983 0.02137,-1.24848 0.02137,-1.89486l-0.00972,-12.31645c-0.00193,-0.02655 -0.00391,-0.05314 -0.00391,-0.07969c-0.00972,-0.72607 -0.02722,-1.43442 -0.05058,-2.11621c-0.00391,-0.07969 -0.0058,-0.15939 -0.00972,-0.23908c-0.02331,-0.64638 -0.05638,-1.27503 -0.09333,-1.88599c-0.0058,-0.10624 -0.01557,-0.21249 -0.02137,-0.31878c-0.03888,-0.56668 -0.07969,-1.11564 -0.13023,-1.64691c-0.01363,-0.13279 -0.02916,-0.2745 -0.04275,-0.40729c-0.04666,-0.47812 -0.09913,-0.94743 -0.15745,-1.39014c-0.02331,-0.17707 -0.0486,-0.34533 -0.07384,-0.5224c-0.0544,-0.38074 -0.11079,-0.76149 -0.17302,-1.11564c-0.03888,-0.23022 -0.0855,-0.44271 -0.12834,-0.65524c-0.05638,-0.28332 -0.10885,-0.56668 -0.16911,-0.82345c-0.06997,-0.30105 -0.1458,-0.57555 -0.21969,-0.85c-0.04275,-0.15052 -0.08167,-0.31878 -0.12636,-0.46044c-0.90783,-3.01936 -2.24919,-4.49802 -4.00851,-4.39177v-0.02655l-1.34523,0.01773v-0.05314h-17.31505l0.00013,0.00009z M146.11928,57.42957c0.00391,0.09738 0.00774,0.18594 0.00774,0.28332l0.03501,41.93441c-0.00391,2.22246 -0.03109,4.35636 -0.06997,6.46371c-0.01165,0.55782 -0.01944,1.10682 -0.03109,1.65577c-0.04666,2.02765 -0.10885,4.01103 -0.19053,5.9413c-0.01557,0.38961 -0.03888,0.77917 -0.05445,1.16878c-0.28381,6.14493 -0.74259,11.69667 -1.38024,16.65513c-0.03888,0.29218 -0.06997,0.59323 -0.10885,0.88542c-0.20218,1.51411 -0.42768,2.96622 -0.66483,4.36522c-0.06219,0.37188 -0.12834,0.72607 -0.19053,1.08909c-1.08085,6.00327 -2.48247,10.90863 -4.19899,14.67171c-0.09526,0.21249 -0.19053,0.42502 -0.28773,0.62865c-0.40432,0.84118 -0.82426,1.62036 -1.25973,2.33757c-0.08361,0.14166 -0.17109,0.26563 -0.25659,0.39843c-1.43271,2.24901 -3.04231,3.86937 -4.82301,4.84335c-0.07969,0.04428 -0.15354,0.09738 -0.23328,0.14166c-0.56178,0.28332 -1.14304,0.49585 -1.7379,0.65524c-0.13999,0.04428 -0.28381,0.07969 -0.42768,0.10624c-0.61236,0.13279 -1.23637,0.23022 -1.88181,0.23908h-9.82102c-5.99134,0.35419 -10.56748,-4.69282 -13.6584,-14.96394c-0.15354,-0.50472 -0.28579,-1.07136 -0.42961,-1.59381c-0.25659,-0.93856 -0.51516,-1.86826 -0.75037,-2.88652c-0.20412,-0.88542 -0.38686,-1.85058 -0.57541,-2.79801c-0.1458,-0.74376 -0.29938,-1.46097 -0.43546,-2.23132c-0.21384,-1.22188 -0.40432,-2.51464 -0.59292,-3.82509c-0.08361,-0.58437 -0.17302,-1.15992 -0.25272,-1.76202c-0.19827,-1.52293 -0.37323,-3.11674 -0.53847,-4.74597c-0.04666,-0.4693 -0.0972,-0.92083 -0.14188,-1.39014c-0.16717,-1.79743 -0.31297,-3.68343 -0.44127,-5.6137c-0.02331,-0.35419 -0.0486,-0.70834 -0.07195,-1.07136c-0.13023,-2.06307 -0.23328,-4.2147 -0.31882,-6.42829c-0.00972,-0.26563 -0.02137,-0.53127 -0.03109,-0.7969c-0.08167,-2.3287 -0.13999,-4.72824 -0.17496,-7.20747c-0.00193,-0.10624 -0.0058,-0.18594 -0.00774,-0.29218l-0.03501,-41.93441c0.00391,-2.22246 0.03303,-4.35636 0.06997,-6.46371c0.01165,-0.54895 0.01944,-1.10682 0.03303,-1.64691c0.04666,-2.03652 0.10692,-4.01989 0.18855,-5.9413c0.01557,-0.39843 0.03694,-0.77917 0.05638,-1.16878c0.28381,-6.15379 0.74259,-11.70549 1.37826,-16.66395c0.03694,-0.29218 0.07195,-0.59323 0.11079,-0.88542c0.20218,-1.51411 0.42768,-2.96622 0.66483,-4.36522c0.06219,-0.37188 0.12636,-0.72607 0.19048,-1.08909c1.08085,-6.01213 2.48053,-10.90863 4.19899,-14.68057c0.09526,-0.20367 0.19048,-0.41616 0.28773,-0.61983c0.40432,-0.84118 0.82228,-1.62036 1.25973,-2.33757c0.08361,-0.14166 0.17109,-0.26563 0.25465,-0.39843c1.43464,-2.24901 3.04231,-3.86937 4.82301,-4.84335c0.07969,-0.04428 0.15552,-0.09738 0.23328,-0.14166c0.56178,-0.28332 1.14502,-0.49585 1.7379,-0.65524c0.14188,-0.04428 0.28579,-0.07969 0.42768,-0.10624c0.61236,-0.13279 1.23637,-0.23022 1.88181,-0.23022l9.82102,-0.07969v0.07083c5.99134,-0.35419 10.56748,4.69282 13.6584,14.96394c0.15165,0.50472 0.28773,1.06254 0.43155,1.59381c0.25659,0.93856 0.51322,1.86826 0.7465,2.88652c0.20605,0.88542 0.3888,1.85058 0.57541,2.79801c0.14773,0.74376 0.29938,1.4521 0.43546,2.23132c0.21775,1.22188 0.40432,2.51464 0.59485,3.82509c0.08167,0.58437 0.17496,1.15992 0.25272,1.76202c0.19827,1.52293 0.37323,3.11674 0.53653,4.74597c0.04666,0.4693 0.0972,0.92083 0.13999,1.39014c0.17109,1.79743 0.31491,3.68343 0.44325,5.6137c0.02331,0.35419 0.05058,0.70834 0.07384,1.07136c0.12834,2.06307 0.23328,4.2147 0.31882,6.42829c0.01165,0.26563 0.01944,0.53127 0.03109,0.7969c0.08167,2.31984 0.13999,4.72824 0.17496,7.20747v0.00886h0.00004zM135.30106,94.30814c0.02137,-1.11564 0.03694,-2.24901 0.03694,-3.42666l-0.01746,-22.23337c0,-0.05314 -0.00391,-0.09738 -0.00391,-0.15052c-0.01746,-1.31044 -0.0486,-2.59434 -0.09333,-3.81622c-0.00391,-0.15052 -0.00972,-0.29218 -0.01557,-0.42502c-0.04473,-1.17765 -0.10107,-2.31984 -0.16911,-3.40893c-0.01165,-0.1948 -0.02529,-0.38074 -0.03888,-0.57555c-0.06804,-1.01826 -0.14382,-2.01879 -0.23328,-2.97508c-0.02529,-0.2479 -0.05058,-0.47812 -0.07578,-0.72607c-0.08748,-0.86773 -0.18081,-1.71774 -0.28579,-2.52351c-0.04081,-0.31878 -0.08941,-0.61983 -0.13414,-0.9297c-0.09913,-0.69066 -0.2002,-1.38127 -0.31297,-2.02765c-0.07195,-0.41616 -0.15354,-0.7969 -0.23134,-1.18647c-0.09913,-0.50472 -0.19633,-1.00939 -0.30519,-1.48752c-0.12249,-0.53127 -0.2605,-1.02712 -0.39658,-1.52293c-0.07776,-0.28332 -0.14773,-0.58437 -0.22743,-0.84118c-1.63876,-5.45431 -4.06678,-8.12835 -7.24329,-7.94241v-0.03541l-5.20794,0.03541c-0.34213,0 -0.67261,0.05314 -0.99729,0.12397l-0.22747,0.05314c-0.31491,0.08856 -0.62401,0.1948 -0.92146,0.35419c-0.04081,0.01773 -0.08167,0.05314 -0.12244,0.07083c-0.94477,0.51354 -1.79622,1.37241 -2.55829,2.56779c-0.04473,0.07083 -0.09135,0.13279 -0.13608,0.20367c-0.23134,0.38074 -0.45297,0.7969 -0.66676,1.23961c-0.05247,0.10624 -0.10107,0.22135 -0.15354,0.33646c-0.90981,1.99224 -1.6524,4.59544 -2.22583,7.78302c-0.03303,0.18594 -0.06804,0.38074 -0.10107,0.57555c-0.12636,0.74376 -0.24493,1.50525 -0.35185,2.31097c-0.02137,0.15939 -0.03888,0.31878 -0.05832,0.4693c-0.33826,2.62975 -0.5832,5.57829 -0.73287,8.83669c-0.00774,0.20367 -0.01944,0.40729 -0.02916,0.61983c-0.04275,1.02712 -0.07384,2.07193 -0.09913,3.15216c-0.00774,0.29218 -0.01165,0.57555 -0.01746,0.8766c-0.01944,1.11564 -0.03501,2.24014 -0.03694,3.41779l0.01746,22.24223c0,0.04428 0.00391,0.09738 0.00391,0.14166c0.01746,1.31931 0.0486,2.59434 0.09333,3.82509c0.00391,0.15052 0.00972,0.28332 0.01557,0.42502c0.04473,1.16878 0.10107,2.31097 0.16911,3.40893c0.01165,0.1948 0.02529,0.38074 0.03888,0.56668c0.06804,1.02712 0.14386,2.01879 0.23521,2.97508c0.02331,0.2479 0.0486,0.48699 0.07384,0.73489c0.08941,0.86773 0.18081,1.70892 0.28579,2.51464c0.04275,0.3276 0.08941,0.62865 0.13414,0.93856c0.09913,0.69066 0.2002,1.38127 0.31491,2.02765c0.06997,0.40729 0.15165,0.78804 0.22941,1.17765c0.09913,0.50472 0.19633,1.01826 0.30519,1.48752c0.12442,0.53127 0.2605,1.02712 0.39658,1.52293c0.07776,0.28332 0.14773,0.58437 0.22747,0.85c1.6407,5.44545 4.06678,8.11948 7.24329,7.93354h5.20794c0.34411,-0.00886 0.67455,-0.05314 0.99729,-0.12397c0.07578,-0.01773 0.15354,-0.03541 0.22747,-0.05314c0.31491,-0.08856 0.62401,-0.20367 0.92146,-0.35419c0.04081,-0.01773 0.08167,-0.05314 0.12249,-0.07083c0.94477,-0.51354 1.7982,-1.37241 2.55829,-2.56779c0.04473,-0.07083 0.09135,-0.13279 0.13608,-0.20367c0.23328,-0.38074 0.4549,-0.7969 0.66874,-1.23961c0.05247,-0.10624 0.10107,-0.22135 0.15354,-0.33646c0.90981,-1.99224 1.6524,-4.59544 2.2239,-7.78302c0.03501,-0.1948 0.06997,-0.38074 0.10305,-0.57555c0.12636,-0.74376 0.24493,-1.51411 0.35185,-2.31984c0.02137,-0.15052 0.03888,-0.30991 0.05832,-0.4693c0.33826,-2.62975 0.58126,-5.56942 0.73093,-8.82783c0.00972,-0.21249 0.02137,-0.41616 0.03109,-0.61983c0.04275,-1.01826 0.07384,-2.07193 0.09913,-3.15216l0.01746,-0.8766c0,0 -0.00193,0.00886 -0.00193,0.00891z M195.06487,40.58855c0,0.07083 0.00391,0.14166 0.00391,0.20367l0.02331,29.62678c0,1.56721 -0.01944,3.07246 -0.04666,4.56885c-0.00774,0.38074 -0.01557,0.77917 -0.02331,1.15992c-0.03501,1.43442 -0.07776,2.83342 -0.13216,4.19697c-0.01165,0.2745 -0.02722,0.54013 -0.04275,0.82345c-0.19827,4.33867 -0.52488,8.26114 -0.972,11.7675c-0.02722,0.20367 -0.05058,0.42502 -0.07776,0.62865c-0.14382,1.06254 -0.30325,2.08962 -0.47043,3.08133c-0.04275,0.25677 -0.08941,0.51354 -0.13608,0.77031c-0.76207,4.24125 -1.75347,7.70332 -2.96653,10.36849c-0.0661,0.15052 -0.13216,0.30105 -0.20218,0.44271c-0.28381,0.59323 -0.5832,1.15105 -0.89032,1.65577c-0.05832,0.09738 -0.12051,0.18594 -0.18274,0.2745c-1.01088,1.59381 -2.14614,2.736 -3.40587,3.42666c-0.05445,0.03541 -0.10885,0.07083 -0.1633,0.09738c-0.39658,0.20367 -0.80869,0.35419 -1.22859,0.4693c-0.10107,0.02655 -0.20218,0.05314 -0.30325,0.07083c-0.43155,0.08856 -0.87088,0.15939 -1.32966,0.15939h-1.27525v0.01773h-19.7392v47.60121h-10.82407v-161.95568h6.56676v-0.04428h23.99647v0.04428h0.80869v0.05314c4.234,-0.25677 7.46878,3.31155 9.6538,10.57216c0.10498,0.34533 0.19827,0.74376 0.30325,1.11564c0.17883,0.66406 0.36157,1.32817 0.52875,2.04538c0.14382,0.61983 0.27216,1.30158 0.40432,1.97451c0.10498,0.5224 0.21384,1.02712 0.30717,1.57608c0.15165,0.85887 0.28773,1.77088 0.41989,2.70058c0.05832,0.40729 0.12051,0.81459 0.17883,1.23961c0.13999,1.08022 0.26437,2.20473 0.38101,3.35583c0.03109,0.3276 0.06997,0.64638 0.0972,0.98284c0.12051,1.27503 0.22158,2.6032 0.31491,3.96675c0.01557,0.2479 0.03501,0.49585 0.05058,0.75262c0.08941,1.46097 0.1633,2.98395 0.22549,4.5423c0.00774,0.18594 0.01557,0.37188 0.01944,0.56668c0.05832,1.64691 0.10107,3.34696 0.12442,5.09125zM185.55489,64.60162c0.01165,-0.61983 0.02331,-1.24848 0.02331,-1.89486l-0.01165,-12.31645c0,-0.02655 -0.00391,-0.05314 -0.00391,-0.07969c-0.00774,-0.72607 -0.02722,-1.43442 -0.05058,-2.11621c-0.00391,-0.07969 -0.00391,-0.15939 -0.00774,-0.23908c-0.02722,-0.64638 -0.05832,-1.27503 -0.09333,-1.88599l-0.02331,-0.31878c-0.03888,-0.56668 -0.08167,-1.11564 -0.12834,-1.64691c-0.01557,-0.13279 -0.02722,-0.2745 -0.04275,-0.40729c-0.04666,-0.47812 -0.0972,-0.94743 -0.15939,-1.39014c-0.01944,-0.17707 -0.04666,-0.34533 -0.06997,-0.5224c-0.05445,-0.38074 -0.11277,-0.76149 -0.17496,-1.11564c-0.03888,-0.23022 -0.0855,-0.44271 -0.12834,-0.65524c-0.05445,-0.28332 -0.10885,-0.56668 -0.17109,-0.82345c-0.0661,-0.30105 -0.14382,-0.57555 -0.21775,-0.85c-0.04275,-0.15052 -0.08167,-0.31878 -0.12834,-0.46044c-0.90589,-3.01936 -2.24721,-4.49802 -4.00851,-4.39177v-0.02655l-1.34131,0.01773v-0.05314h-17.31699v47.54807h18.8527c0.19053,0 0.37323,-0.02655 0.5521,-0.07083l0.12834,-0.02655c0.17496,-0.05314 0.346,-0.11511 0.50931,-0.1948c0.02331,-0.01773 0.04666,-0.03541 0.0661,-0.04428c0.52488,-0.28332 0.99531,-0.76149 1.4152,-1.42555c0.02722,-0.03541 0.05058,-0.07083 0.07776,-0.10624c0.12834,-0.21249 0.24885,-0.44271 0.36936,-0.69066c0.02722,-0.06196 0.05445,-0.12397 0.0855,-0.18594c0.50157,-1.10682 0.91363,-2.55006 1.22859,-4.31208l0.05832,-0.31878c0.06997,-0.40729 0.13608,-0.83232 0.1944,-1.28389c0.01165,-0.07969 0.01944,-0.16825 0.03109,-0.25677c0.19053,-1.4521 0.32269,-3.08133 0.40824,-4.88763c0.00391,-0.11511 0.01165,-0.22135 0.01557,-0.34533c0.02331,-0.56668 0.04275,-1.14223 0.05445,-1.74433c0.00391,-0.15939 0.00774,-0.3276 0.01165,-0.48699l-0.00391,0.00886l0.00013,0.00009z M219.27127,0h44.41215v33.42532h-16.79598v128.56578h-10.8202v-128.56578h-16.79598z M266.42059,161.99109v-161.95568h10.82407v64.22974h25.38062v-64.22974h10.8202v161.95568h-10.8202v-64.22092h-25.38062v64.22092z M319.02081,161.99109v-161.95568h40.7847v33.51388h-29.96063v30.71587h27.69389v33.50501h-27.69389v30.71587h29.96063v33.50501h-40.7847z M44.4005,302.74741l-0.00193,2.81569c0,0.2479 0.00778,0.47812 0.00778,0.72607c0,0 -0.01165,13.19305 -0.02722,13.19305c-0.02529,1.71774 -0.06412,3.38238 -0.12244,4.97619c-0.0058,0.1948 -0.01363,0.38961 -0.02137,0.56668c-0.05832,1.57608 -0.13414,3.08133 -0.22356,4.55116l-0.05247,0.74376c-0.09135,1.38127 -0.19246,2.70945 -0.31297,3.98448c-0.02916,0.33646 -0.0661,0.65524 -0.09913,0.97398c-0.11664,1.15105 -0.24106,2.28442 -0.38101,3.34696c-0.05638,0.44271 -0.11862,0.83232 -0.17883,1.25734c-0.13216,0.92083 -0.26631,1.82398 -0.41796,2.69172c-0.09526,0.54895 -0.20412,1.06254 -0.30717,1.57608c-0.13216,0.67293 -0.26244,1.34586 -0.40824,1.98337c-0.1633,0.70834 -0.346,1.36359 -0.52681,2.03652c-0.10498,0.37188 -0.19827,0.76149 -0.30519,1.11564c-2.18502,7.26061 -5.41786,10.82007 -9.64993,10.57216c0,0 -18.33565,0.05314 -18.33565,0c-4.234,0.2479 -7.46685,-3.31155 -9.64993,-10.57216c-0.10692,-0.35419 -0.20218,-0.74376 -0.30325,-1.11564c-0.18274,-0.67293 -0.36549,-1.32817 -0.53068,-2.03652c-0.14386,-0.63751 -0.27409,-1.31044 -0.4063,-1.98337c-0.10305,-0.53127 -0.2119,-1.02712 -0.30717,-1.57608c-0.15165,-0.86773 -0.28579,-1.77088 -0.41989,-2.69172c-0.05832,-0.42502 -0.12244,-0.81459 -0.17689,-1.25734c-0.13999,-1.06254 -0.26437,-2.19591 -0.38101,-3.34696c-0.03303,-0.33646 -0.06804,-0.63751 -0.09913,-0.97398c-0.11862,-1.29276 -0.22158,-2.6032 -0.31297,-3.98448c-0.01746,-0.2479 -0.03501,-0.49585 -0.05058,-0.74376c-0.09135,-1.46983 -0.16524,-2.97508 -0.22549,-4.55116c-0.0058,-0.17707 -0.01363,-0.37188 -0.02137,-0.56668c-0.05832,-1.62922 -0.09913,-3.32923 -0.12244,-5.08243c0,-0.07083 -0.0058,-0.14166 -0.0058,-0.21249l-0.01165,-14.18472h9.508c0,0 0.00391,4.58658 0.0058,4.67514c0.00972,0.72607 0.02722,1.43442 0.05058,2.10735c0.00391,0.08856 0.0058,0.15939 0.00972,0.23022c0.02331,0.65524 0.05638,1.29276 0.09333,1.89486c0.00778,0.10624 0.01557,0.21249 0.02137,0.31878c0.03888,0.56668 0.08167,1.11564 0.13023,1.64691c0.01363,0.14166 0.02722,0.28332 0.04081,0.40729c0.0486,0.47812 0.09913,0.95629 0.15745,1.399c0.02331,0.17707 0.0486,0.33646 0.07384,0.51354c0.0544,0.38961 0.11277,0.76149 0.17496,1.11564c0.04081,0.23022 0.08361,0.44271 0.12829,0.65524c0.0544,0.28332 0.10885,0.56668 0.16717,0.83232c0.06997,0.30105 0.1458,0.56668 0.22158,0.85c0.04081,0.14166 0.08167,0.31878 0.12442,0.46044c0.90783,3.0105 2.25112,4.49802 4.0104,4.4095c0,0 1.34523,-0.01773 1.34523,0.03541c0,0 11.86218,0 11.86218,-0.05314c0,0 1.34329,0.01773 1.34329,0c1.49877,0.08856 3.1648,-0.76149 4.31563,-5.59597c0.60844,-2.55006 1.01668,-6.19807 1.00309,-9.97006c-0.00193,-0.46044 -0.00972,-0.92083 -0.02331,-1.36359c-0.12636,-4.12614 -0.74065,-7.8273 -1.52212,-10.07631c-1.0575,-3.04591 -2.35998,-3.73657 -3.58663,-3.73657c0,0 -1.53769,0 -1.53769,-0.01773l-14.28241,-0.01773h-1.27525c-0.4549,-0.01773 -0.89617,-0.07083 -1.32777,-0.17707c-0.10305,-0.01773 -0.20412,-0.03541 -0.30325,-0.07083c-0.42187,-0.10624 -0.832,-0.26563 -1.22859,-0.46044c-0.05638,-0.03541 -0.10885,-0.07083 -0.16524,-0.08856c-1.25775,-0.70834 -2.39301,-1.84171 -3.40587,-3.43552c-0.06025,-0.08856 -0.12244,-0.17707 -0.18274,-0.28332c-0.30717,-0.49585 -0.60457,-1.04481 -0.88839,-1.64691c-0.06804,-0.14166 -0.13414,-0.30105 -0.20218,-0.44271c-1.215,-2.6563 -2.20446,-6.12724 -2.96653,-10.37736c-0.04666,-0.2479 -0.09135,-0.49585 -0.13608,-0.76149c-0.16911,-0.99171 -0.32656,-2.01879 -0.47043,-3.08133c-0.02722,-0.21249 -0.05058,-0.42502 -0.07582,-0.61983c-0.44905,-3.50635 -0.77562,-7.43769 -0.97587,-11.77636c-0.01165,-0.26563 -0.02722,-0.54895 -0.03888,-0.83232c-0.05638,-1.34586 -0.09913,-2.74486 -0.13216,-4.19697c-0.00972,-0.37188 -0.01557,-0.76149 -0.02331,-1.15105c-0.0058,-0.33646 -0.0058,-0.69066 -0.03888,-1.02712l0.00193,-2.33757c-0.00193,-0.40729 -0.01165,-0.77917 -0.01165,-1.2042c0,0 0.01165,-13.19305 0.03303,-13.19305c0.02529,-1.71774 0.06412,-3.38238 0.12051,-4.99387c0.00778,-0.17707 0.01557,-0.37188 0.02137,-0.54895c0.06025,-1.57608 0.13414,-3.09906 0.22549,-4.55116c0.01557,-0.2479 0.03303,-0.49585 0.05058,-0.76149c0.09135,-1.36359 0.1944,-2.69172 0.31297,-3.96675c0.03109,-0.33646 0.06804,-0.65524 0.10107,-0.97398c0.11664,-1.15105 0.23913,-2.28442 0.38101,-3.36465c0.0544,-0.42502 0.11862,-0.81459 0.17689,-1.23961c0.13216,-0.92083 0.26824,-1.84171 0.41796,-2.69172c0.09526,-0.54895 0.20412,-1.06254 0.3091,-1.57608c0.13216,-0.67293 0.2605,-1.36359 0.4063,-1.98337c0.16524,-0.70834 0.34798,-1.38127 0.52875,-2.03652c0.10305,-0.37188 0.19633,-0.77917 0.30325,-1.11564c2.18502,-7.26061 5.41786,-10.8378 9.65187,-10.57216h18.33367c4.234,-0.26563 7.46685,3.31155 9.65187,10.57216c0.10692,0.33646 0.2002,0.74376 0.30325,1.11564c0.18081,0.67293 0.36351,1.32817 0.52875,2.03652c0.1458,0.61983 0.27409,1.31044 0.40824,1.98337c0.10305,0.51354 0.2119,1.02712 0.30717,1.57608c0.14971,0.85 0.28579,1.77088 0.41796,2.69172c0.05832,0.40729 0.12244,0.81459 0.17883,1.23961c0.13801,1.08022 0.26244,2.21359 0.37903,3.36465c0.03303,0.31878 0.06997,0.63751 0.09913,0.97398c0.12051,1.27503 0.22158,2.6032 0.31297,3.96675c0.01746,0.26563 0.03694,0.51354 0.05247,0.76149c0.08941,1.4521 0.1633,2.97508 0.22356,4.55116c0.00778,0.17707 0.01557,0.37188 0.02137,0.54895c0.05832,1.64691 0.09913,3.34696 0.12442,5.10012c0,0.07083 0.00391,0.14166 0.00391,0.1948l0.01165,14.20245h-9.50607c0,0 -0.00391,-4.58658 -0.0058,-4.67514c-0.01165,-0.72607 -0.02722,-1.43442 -0.05247,-2.12503c-0.00193,-0.07083 -0.0058,-0.14166 -0.00778,-0.23022c-0.02529,-0.65524 -0.05638,-1.27503 -0.09526,-1.89486c-0.0058,-0.10624 -0.01363,-0.1948 -0.02137,-0.30105c-0.03888,-0.56668 -0.07969,-1.13337 -0.13023,-1.64691c-0.01165,-0.14166 -0.02722,-0.28332 -0.04081,-0.40729c-0.04666,-0.49585 -0.09913,-0.95629 -0.15745,-1.399c-0.02331,-0.17707 -0.0486,-0.33646 -0.07384,-0.51354c-0.0544,-0.38961 -0.11079,-0.77917 -0.17302,-1.13337c-0.04081,-0.23022 -0.0855,-0.42502 -0.12834,-0.65524c-0.05638,-0.26563 -0.10885,-0.56668 -0.16911,-0.81459c-0.06997,-0.30105 -0.1458,-0.56668 -0.21969,-0.85c-0.04275,-0.15939 -0.08167,-0.31878 -0.12636,-0.46044c-0.90783,-3.0105 -2.25112,-4.49802 -4.00851,-4.4095c0,0 -1.34523,0 -1.34523,-0.05314c0,0 -11.86218,0 -11.86218,0.05314c0,0 -1.34523,0 -1.34523,0.01773c-1.70874,-0.10624 -3.94236,0.93856 -4.87939,8.4825c-0.45684,3.70111 -0.51903,8.37625 -0.15939,12.30759c0.61429,6.71161 2.13061,8.81896 3.58861,9.61587c0.02331,0.01773 0.04666,0.03541 0.06804,0.03541c0.16524,0.08856 0.33628,0.15939 0.51129,0.1948c0.04081,0.01773 0.08361,0.03541 0.12636,0.03541c0.17883,0.03541 0.36157,0.07083 0.5521,0.07083c0,0 1.53769,0 1.53769,0.01773l11.86218,0.01773h3.69549c0.45684,0 0.89815,0.07083 1.32966,0.15939c0.10107,0.01773 0.20218,0.05314 0.30325,0.07083c0.41989,0.12397 0.83011,0.26563 1.22859,0.47812c0.0544,0.01773 0.10885,0.05314 0.1633,0.08856c1.25775,0.69066 2.39301,1.84171 3.4078,3.43552c0.06025,0.08856 0.12244,0.17707 0.18081,0.26563c0.3091,0.51354 0.60457,1.06254 0.89032,1.66464c0.06804,0.14166 0.13414,0.28332 0.20218,0.44271c1.21306,2.6563 2.20446,6.10951 2.96653,10.35963c0.04666,0.26563 0.09135,0.51354 0.13608,0.77917c0.16717,0.97398 0.32463,2.01879 0.46849,3.08133c0.02722,0.21249 0.05247,0.42502 0.07776,0.61983c0.44905,3.50635 0.77373,7.43769 0.97393,11.77636c0.01363,0.26563 0.02916,0.54895 0.04081,0.81459c0.05638,1.36359 0.09913,2.76255 0.13216,4.19697c0.00972,0.38961 0.01557,0.77917 0.02137,1.16878c0.00778,0.33646 0.0058,0.69066 0.01165,1.02712h0.03316z M86.22524,198.03537l11.45007,0.03541l-19.03158,161.9114h-15.18057l-19.03158,-161.9114l11.45007,-0.03541l15.17085,129.06163l15.17278,-129.06163h-0.00009z M96.78499,302.62344c0,-0.10624 -0.0058,-0.1948 -0.0058,-0.28332l-0.03501,-41.93441c0.00193,-2.23132 0.03109,-4.35636 0.06804,-6.46371c0.01165,-0.54895 0.01944,-1.11564 0.03109,-1.64691c0.04473,-2.03652 0.10305,-4.01989 0.18081,-5.95017c0.01746,-0.38961 0.03888,-0.77917 0.0544,-1.16878c0.27607,-6.14493 0.72121,-11.70549 1.33551,-16.66395c0.03694,-0.28332 0.06997,-0.58437 0.10692,-0.88542c0.19633,-1.50525 0.41404,-2.95735 0.64345,-4.35636c0.0603,-0.37188 0.12442,-0.72607 0.18666,-1.09795c1.04395,-6.00327 2.40084,-10.90863 4.06098,-14.68057c0.09333,-0.21249 0.18468,-0.42502 0.27994,-0.61983c0.39073,-0.83232 0.7951,-1.62922 1.21887,-2.33757c0.08167,-0.14166 0.16524,-0.26563 0.24687,-0.38961c1.38798,-2.24901 2.94318,-3.87823 4.66749,-4.85221c0.07578,-0.05314 0.14971,-0.10624 0.22549,-0.14166c0.54432,-0.28332 1.10808,-0.49585 1.68349,-0.65524c0.13608,-0.05314 0.27409,-0.07083 0.41215,-0.10624c0.59485,-0.14166 1.19551,-0.23022 1.82344,-0.23022l11.78442,-0.08856v0.07083c5.79888,-0.33646 10.22728,4.69282 13.21906,14.98162c0.1458,0.49585 0.27409,1.06254 0.41404,1.57608c0.24885,0.93856 0.49765,1.87713 0.72508,2.88652c0.19827,0.88542 0.37521,1.85944 0.55597,2.79801c0.14188,0.74376 0.28962,1.46983 0.42187,2.24901c0.20605,1.2042 0.39073,2.49696 0.57348,3.8074c0.08167,0.58437 0.16717,1.16878 0.24493,1.77088c0.19053,1.52293 0.36157,3.11674 0.52096,4.74597c0.04275,0.46044 0.09333,0.92083 0.13608,1.399c0.1633,1.78857 0.30325,3.6657 0.42768,5.59597c0.02331,0.35419 0.05058,0.70834 0.06997,1.08022c0.12442,2.0542 0.22549,4.2147 0.30717,6.42829c0.01165,0.26563 0.02331,0.53127 0.03109,0.7969c0.04275,1.2042 0.05832,2.49696 0.08941,3.75426h-11.26539c-0.03888,-0.30105 -0.07969,-0.58437 -0.12051,-0.86773c-0.09526,-0.69066 -0.19246,-1.38127 -0.30325,-2.03652c-0.06997,-0.40729 -0.14773,-0.7969 -0.22356,-1.18647c-0.09526,-0.49585 -0.19053,-1.00939 -0.29547,-1.48752c-0.12051,-0.53127 -0.25272,-1.02712 -0.38493,-1.52293c-0.07384,-0.28332 -0.14188,-0.58437 -0.21969,-0.83232c-1.58629,-5.45431 -3.93264,-8.12835 -7.00803,-7.95123v-0.03541l-7.32105,0.03541c-0.33241,0 -0.65124,0.05314 -0.96619,0.12397c-0.07195,0.01773 -0.1458,0.03541 -0.21969,0.05314c-0.30325,0.08856 -0.60264,0.1948 -0.89032,0.35419c-0.04081,0.01773 -0.07969,0.05314 -0.11862,0.07083c-0.91561,0.51354 -1.73983,1.38127 -2.47468,2.56779c-0.04473,0.07083 -0.08941,0.14166 -0.13216,0.21249c-0.22356,0.37188 -0.4374,0.7969 -0.64539,1.23961c-0.05058,0.10624 -0.09913,0.21249 -0.14773,0.33646c-0.8806,1.98337 -1.59993,4.58658 -2.15392,7.77415l-0.09913,0.58437c-0.12244,0.74376 -0.23715,1.50525 -0.3402,2.30215c-0.02137,0.15939 -0.03888,0.31878 -0.05832,0.47812c-0.32656,2.62089 -0.56178,5.56056 -0.70758,8.81896c-0.00972,0.21249 -0.01944,0.42502 -0.02916,0.61983c-0.04081,1.02712 -0.07195,2.07193 -0.09526,3.15216c-0.0058,0.30105 -0.01165,0.58437 -0.01557,0.88542c-0.02137,1.11564 -0.03694,2.24901 -0.03694,3.41779l0.01746,22.24223c0,0.05314 0.00391,0.08856 0.00391,0.14166c0.01746,1.32817 0.04666,2.58547 0.08941,3.82509c0.0058,0.14166 0.01165,0.28332 0.01557,0.42502c0.04275,1.16878 0.0972,2.31984 0.1633,3.41779c0.01363,0.17707 0.02529,0.37188 0.03694,0.56668c0.0661,1.00939 0.14188,2.01879 0.22747,2.97508c0.02331,0.2479 0.0486,0.47812 0.07195,0.72607c0.0855,0.86773 0.17496,1.71774 0.27796,2.51464c0.04081,0.31878 0.08748,0.61983 0.13023,0.93856c0.0972,0.69066 0.1944,1.38127 0.30325,2.01879c0.06997,0.40729 0.14971,0.7969 0.22356,1.18647c0.0972,0.49585 0.19048,1.00939 0.29551,1.48752c0.12051,0.53127 0.25272,1.02712 0.38493,1.52293c0.07384,0.28332 0.14188,0.58437 0.21969,0.85c1.36467,4.67514 3.29508,7.29603 5.76198,7.8273c1.14502,0 6.40152,-0.03541 6.86808,-0.03541c2.88684,-0.01773 5.65308,-5.24178 7.69428,-14.53891l1.09444,-4.97619h-15.21166v-33.50501h27.72508v91.27109h-10.8202v-27.37777l-2.7877,12.6972c-2.0412,9.29713 -4.8055,14.52118 -7.69428,14.53891c-3.47971,0.01773 -7.704,0.03541 -7.704,0.03541c-5.79888,0.35419 -10.22728,-4.69282 -13.21906,-14.96394c-0.14773,-0.49585 -0.27409,-1.06254 -0.41602,-1.59381c-0.24885,-0.93856 -0.49765,-1.87713 -0.72513,-2.88652c-0.19827,-0.88542 -0.37521,-1.84171 -0.55597,-2.79801c-0.14188,-0.74376 -0.28962,-1.4521 -0.42187,-2.23132c-0.20605,-1.22188 -0.39073,-2.51464 -0.5715,-3.82509c-0.08167,-0.58437 -0.16911,-1.15105 -0.24493,-1.77088c-0.19246,-1.50525 -0.36157,-3.09906 -0.52096,-4.74597c-0.04473,-0.46044 -0.09333,-0.90315 -0.13801,-1.38127c-0.1633,-1.8063 -0.30325,-3.68343 -0.42768,-5.6137c-0.02331,-0.35419 -0.0486,-0.70834 -0.06997,-1.06254c-0.12636,-2.07193 -0.22549,-4.2147 -0.3091,-6.42829c-0.00972,-0.28332 -0.02137,-0.54895 -0.02916,-0.81459c-0.08167,-2.31984 -0.13608,-4.72824 -0.17109,-7.20747v0.05314h0.00004z M171.68652,359.98218v-161.94681h10.82407v64.21206h25.38062v-64.21206h10.8202v161.94681h-10.8202v-64.21206h-12.48039v-0.01773h-0.42381v0.01773h-12.47647v64.21206h-10.82407z M224.28674,359.98218v-161.94681h40.7847v33.50501h-29.96063v30.70705h27.69389v33.52274h-14.7937v-0.01773h-12.90024v30.72473h29.96063v33.50501c0,0 -40.7847,0 -40.78466,0z M308.07618,307.88295c-0.05058,0.08856 -0.10498,0.15939 -0.15552,0.2479l7.63596,51.8336l-11.45007,0.03541l-7.01001,-47.60121h-16.64824v47.60121h-10.82407v-161.94681h6.56671v-0.05314h23.99647v0.05314h0.80865v0.05314c4.234,-0.26563 7.46878,3.29382 9.65376,10.55443c0.10498,0.35419 0.20218,0.76149 0.30325,1.13337c0.17883,0.65524 0.36157,1.31044 0.52875,2.03652c0.14386,0.61983 0.27216,1.31044 0.40824,1.96569c0.10107,0.53127 0.20992,1.04481 0.30717,1.59381c0.14773,0.85 0.28381,1.77088 0.41602,2.69172c0.05832,0.40729 0.12442,0.81459 0.17883,1.23961c0.13995,1.08022 0.26437,2.19591 0.38101,3.36465c0.03501,0.31878 0.06997,0.63751 0.10107,0.97398c0.11664,1.27503 0.22158,2.6032 0.31099,3.96675c0.01944,0.2479 0.03501,0.49585 0.05058,0.76149c0.09333,1.4521 0.16717,2.97508 0.22549,4.53343c0.00778,0.1948 0.01557,0.37188 0.02331,0.56668c0.05832,1.64691 0.09715,3.34696 0.12442,5.10012c0,0.07083 0.00387,0.12397 0.00387,0.1948l0.02331,29.62678c0,1.57608 -0.02331,3.08133 -0.05058,4.56885c-0.00778,0.38961 -0.01165,0.77917 -0.02331,1.15105c-0.03109,1.43442 -0.07384,2.85111 -0.13221,4.19697c-0.01165,0.28332 -0.02722,0.54895 -0.03892,0.83232c-0.19827,4.33867 -0.52492,8.27001 -0.97587,11.77636c-0.02331,0.1948 -0.04666,0.40729 -0.07384,0.61983c-0.14386,1.06254 -0.30325,2.08962 -0.47043,3.08133c-0.04666,0.26563 -0.08941,0.51354 -0.13608,0.76149c-0.76203,4.25011 -1.75347,7.70332 -2.96653,10.37736c-0.0661,0.14166 -0.13221,0.30105 -0.20218,0.44271c-0.28381,0.58437 -0.58315,1.15105 -0.89032,1.64691v0.01773h0.00013zM280.44447,231.41645v47.54807h18.8527c0.19053,0 0.37323,-0.01773 0.5521,-0.07083c0.04666,0 0.0855,-0.01773 0.12829,-0.01773c0.175,-0.05314 0.346,-0.12397 0.50931,-0.1948l0.06997,-0.05314c0.52096,-0.28332 0.99144,-0.76149 1.4152,-1.41669c0.02331,-0.03541 0.05058,-0.07083 0.07384,-0.10624c0.12829,-0.21249 0.25272,-0.44271 0.36936,-0.69066c0.03109,-0.07083 0.05832,-0.12397 0.0855,-0.1948c0.50152,-1.09795 0.91368,-2.55006 1.2325,-4.30321c0.01944,-0.10624 0.03892,-0.21249 0.05445,-0.31878c0.06997,-0.40729 0.13608,-0.83232 0.19827,-1.27503c0.00778,-0.08856 0.01944,-0.17707 0.03109,-0.26563c0.18666,-1.4521 0.32265,-3.08133 0.40437,-4.88763c0.00778,-0.12397 0.01165,-0.23022 0.01944,-0.35419c0.02331,-0.56668 0.03892,-1.13337 0.05445,-1.73547c0.00387,-0.15939 0.00778,-0.33646 0.00778,-0.49585c0.01165,-0.61983 0.01944,-1.23961 0.01944,-1.89486l-0.00778,-12.30759c-0.00387,-0.01773 -0.00387,-0.05314 -0.00387,-0.08856c-0.00778,-0.72607 -0.02722,-1.43442 -0.05058,-2.10735c-0.00387,-0.08856 -0.00387,-0.15939 -0.00778,-0.23022c-0.02722,-0.65524 -0.05832,-1.29276 -0.09333,-1.89486l-0.02331,-0.31878c-0.03892,-0.56668 -0.08163,-1.11564 -0.13221,-1.64691c-0.01165,-0.14166 -0.02722,-0.26563 -0.03892,-0.40729c-0.05058,-0.47812 -0.10107,-0.95629 -0.15939,-1.399c-0.02331,-0.17707 -0.04666,-0.33646 -0.07384,-0.51354c-0.05445,-0.37188 -0.10885,-0.76149 -0.175,-1.11564c-0.03892,-0.23022 -0.08163,-0.44271 -0.12442,-0.65524c-0.05832,-0.28332 -0.10885,-0.56668 -0.17109,-0.83232c-0.06997,-0.30105 -0.14386,-0.56668 -0.22158,-0.83232c-0.03892,-0.15939 -0.08163,-0.33646 -0.12442,-0.47812c-0.90589,-3.0105 -2.25112,-4.49802 -4.00851,-4.39177v-0.01773l-1.34523,0.01773v-0.05314h-17.31699l0.00013,0.00013z M319.21521,359.98218v-161.94681h40.7847v33.50501h-29.96063v30.70705h27.69389v33.52274h-14.7937v-0.01773h-12.90024v30.72473h29.96063v33.50501h-40.7847z"/>
</svg>
