<?xml version="1.0" encoding="UTF-8"?>
<svg xmlns="http://www.w3.org/2000/svg" viewBox="0 0 360 88.2159" fill="currentColor">
  <path d="M59.35527,46.73003c4.57221,2.89676 7.02402,6.02059 4.90818,9.92534c-2.56535,4.57221 -8.81292,3.12383 -16.73149,-0.33597l-30.55702,-13.15815c-6.91504,-2.56535 -10.59281,3.67776 -6.69262,9.58937l11.04231,17.0629c6.57908,10.14786 0.89445,18.28885 -9.70291,18.28885c-7.80484,0 -12.49059,-5.12614 -11.48716,-13.82562l6.57908,-55.31597c1.3394,-11.15575 7.80949,-17.28533 17.73492,-17.28533h38.81155c7.46897,0 14.38411,3.56878 14.38411,11.81876c0,9.59393 -5.23968,12.71321 -11.81876,12.71321c-3.90475,0 -12.38171,-4.01373 -17.73492,-6.46554l-20.18674,-9.14898c-6.91504,-3.11928 -10.37029,-0.88989 -11.81876,1.89788c-1.22595,2.67889 -0.78091,5.79817 3.23282,8.36342z M124.86903,35.91024c-8.92191,-9.70291 0.22252,-20.29572 11.26483,-11.37372l12.93563,10.48382c2.34283,1.89333 4.34969,1.11241 5.23968,0.22252c1.22595,-1.22595 2.00686,-3.12383 -0.22252,-5.68918l-6.4701,-7.47353c-4.90362,-5.68463 -7.35999,-8.58594 -7.35999,-12.71321c0,-5.35313 3.79121,-9.36685 10.15241,-9.36685c8.02746,0 11.15129,5.01716 11.15129,14.72007v41.82185c0,21.52613 -12.82665,31.56045 -37.02712,31.56045c-22.52956,0 -37.9171,-13.38058 -37.9171,-34.57075v-36.13285c0,-12.38171 4.57221,-17.39887 13.04917,-17.39887c11.9322,0 14.82905,12.82665 9.47584,20.74522l-13.71664,20.29572c-4.57221,6.8016 -3.0103,12.82665 3.56878,16.17301l31.67399,16.28199c9.58937,4.90362 15.50098,4.23625 18.84734,-0.44495c3.34626,-4.68575 0.66747,-9.81636 -1.89788,-12.49524l-22.74753,-24.64541z M261.19984,27.21076l-1.23042,27.21532c-1.11241,24.98138 -3.79121,33.78984 -16.72694,33.78984c-7.91847,0 -13.27169,-6.24767 -20.29572,-16.50442l-29.22218,-42.38033c-2.89676,-4.23625 -4.23625,-5.79817 -6.24311,-5.79817c-2.78778,0 -4.12727,1.22595 -4.12727,3.67776c0,2.00686 0.44495,4.90818 2.34283,8.25453l14.72007,26.42985c3.68232,6.69262 2.56535,10.70634 2.56535,13.38514c0,5.68463 -2.90131,12.93563 -12.26826,12.93563c-11.04231,0 -13.49412,-10.70634 -13.27169,-20.96765l1.22595,-51.63365c0.22252,-10.70634 4.90818,-15.61452 12.15928,-15.61452c6.8016,0 10.03432,5.01716 18.17531,15.7235l20.74522,27.43774c4.57221,6.02059 9.36685,15.16502 7.91847,24.42289l-1.00343,6.35656c-0.89445,5.68918 2.56535,8.58594 6.57908,8.58594c6.24767,0 9.14443,-4.68119 9.14443,-11.03775c0,-3.12383 -1.22595,-8.14099 -2.00686,-10.59736l-12.60423,-38.03055c-4.12271,-12.49069 -4.23625,-22.86107 7.80949,-22.86107c14.61109,0 16.39097,11.04231 15.61452,27.21076z M277.30468,73.71827l-3.90019,-58.32626c-0.55849,-9.70291 3.45524,-15.392 11.48726,-15.392c7.91847,0 13.04462,4.79464 14.0526,10.37029c0.88989,5.35313 -0.55849,9.03544 -2.78778,12.38171l-13.94362,21.29915c-3.45524,5.35313 2.22938,9.81636 6.69262,4.57221l30.55702,-36.35519c6.4701,-7.69605 9.25796,-12.26826 16.61795,-12.26826c6.69262,0 12.93563,3.68232 14.27057,13.15815l4.02284,27.88278c0.88989,6.24767 -3.35082,9.03544 -7.14212,8.92191c-3.45524,-0.22252 -6.57908,-3.0103 -5.01716,-8.14099l4.12727,-13.49412c1.00343,-3.23282 -2.1204,-6.69262 -5.35313,-5.1307l-38.81155,18.62482c-3.79121,1.78434 -4.68575,4.34969 -4.24071,6.8016c0.55849,3.34626 6.4701,4.01828 10.81979,4.90818l34.90681,7.58251c10.14786,2.23385 14.83352,5.35313 16.16845,13.16271c1.11697,6.68806 -3.45069,13.82562 -9.69836,13.82562c-6.91504,0 -11.70978,-2.89676 -18.96078,-8.36342l-29.10864,-22.08006c-5.57565,-4.24071 -9.47584,-6.4701 -12.37715,-1.89788c-1.56192,2.45637 0.10898,6.24767 3.12383,9.92534l1.78434,2.1204c7.24654,8.58594 7.58251,20.29572 -3.79576,20.29572c-6.35656,0 -12.71321,-3.79121 -13.49412,-14.38411z"/>
</svg>
