<?xml version="1.0" encoding="UTF-8"?>
<svg xmlns="http://www.w3.org/2000/svg" viewBox="0 0 360 121.838" fill="currentColor">
  <path d="M8.53137,78.1527c13.86322,-25.28891 42.04745,-37.1714 57.58724,-28.94522c22.6988,12.03507 -8.68397,58.80601 13.71064,53.77835v1.67654c-2.43753,1.82716 -18.43409,7.46519 -30.62176,1.52197c-21.32841,-10.35852 2.74272,-43.8756 -10.66371,-48.14031c-9.59853,-3.0479 -25.7467,12.64546 -36.56301,35.64942l-1.98074,-0.76297c13.40643,-46.31314 38.54373,-54.8445 26.35606,-92.93048h32.44991c9.59756,40.67609 -36.86818,42.65586 -51.3408,77.54429l1.06617,0.60838z M165.75232,77.08653c-8.0736,32.29833 -30.46918,46.16055 -56.06328,44.63858c-15.23361,-0.91556 -23.46078,-10.05533 -23.46078,-17.97831c0,-7.16001 4.87506,-11.88249 10.6647,-11.88249c5.17927,0 10.35852,3.35112 10.35852,9.75014c0,5.63804 -3.65631,9.59754 -9.29235,9.59754c-4.87506,0 -7.31261,-3.80889 -7.31261,-3.80889l-0.91456,0.45779c1.67555,6.09384 10.6647,10.66371 18.58669,10.66371c15.082,0 19.65187,-7.92099 29.40201,-32.60152l12.18767,-31.07955h-2.28495c-8.0736,24.52793 -14.7778,41.59068 -31.23016,41.59068c-10.81731,0 -16.75854,-8.0736 -12.94965,-23.61237l9.59754,-38.39216c1.98074,-8.22618 1.82815,-15.84398 -6.09384,-16.30075c-8.07457,-0.45679 -17.06273,8.98816 -16.75854,15.84497l0.91456,0.1526c0,0 1.21878,-4.57186 5.94123,-5.63804c5.48446,-1.52297 10.35952,1.06617 11.73088,6.85482c1.52396,5.33285 -1.82815,10.6657 -7.46519,12.03706c-5.33186,1.52197 -11.88249,-2.89532 -13.25384,-8.68397c-3.35112,-16.14916 16.45335,-29.55559 35.95364,-24.83311c9.75014,2.43753 14.6252,9.44595 12.18767,20.26324l-8.98816,38.69536c-1.52396,6.54964 -1.82815,11.4247 1.52297,12.18767c8.98816,1.82716 21.93781,-50.57981 26.35608,-69.77491l26.05089,0.30519l-15.38718,61.54674z M194.44783,79.82924c1.67458,3.19852 12.49286,-1.06617 21.02422,1.52396c11.42669,3.5037 16.60496,14.32002 16.60496,25.28891h-47.9887c-1.52297,-9.44496 -1.52297,-26.66029 17.06373,-37.78177h-17.06373v-44.63761h29.55459c-6.85482,13.25484 -10.51113,27.26967 -12.94866,40.22029h1.37136c5.33285,-27.42324 18.58669,-51.79859 45.24499,-51.79859c17.36792,0 27.11806,9.90272 27.11806,22.85138c0,21.78521 -23.1546,29.40301 -51.9492,33.21189c-29.09782,3.80889 -29.09782,9.44496 -28.03165,11.1215zM204.35058,66.42279c0.91359,-0.76099 1.82716,-1.37136 2.74272,-1.82915c15.99656,-9.90076 19.04249,-20.56645 14.93039,-23.1546c-4.72445,-3.0479 -14.77977,5.63605 -17.6731,24.98373z M360,82.72456c-23.00398,0 -24.07016,23.91755 -44.48401,26.2025c-16.14916,1.52396 -40.06871,-9.44496 -40.06871,-44.02821c0,-38.08598 31.99312,-52.10178 50.73242,-52.10178c16.75755,0 27.42128,8.83655 27.42128,23.46175c0,14.47262 -16.14717,28.03165 -35.19166,28.03165c-12.94866,0 -23.15657,-3.35112 -29.85881,-6.85681l-0.1526,0.61037c2.89532,1.97976 8.83655,4.56987 13.10124,5.78865c-4.87506,18.43409 -0.1526,42.80943 13.40645,42.80943c17.21533,0 8.53137,-47.22672 35.34424,-47.22672l9.75014,23.30917zM330.74958,37.32499c-6.85482,11.27408 -29.40301,15.53879 -40.52451,11.5773l-0.1526,0.61037c16.14916,6.09384 35.64942,-0.45779 41.13488,-11.88249l-0.45779,-0.30519z"/>
</svg>
