<?xml version="1.0" encoding="UTF-8"?>
<svg xmlns="http://www.w3.org/2000/svg" viewBox="0 0 360 99.9086" fill="currentColor">
  <path d="M31.43459,96.21945c-6.56036,-2.32369 -12.16422,-5.74076 -16.8107,-10.11432c-4.64736,-4.37356 -8.20044,-9.70364 -10.79792,-15.85508c-2.59659,-6.14967 -3.82598,-12.98382 -3.82598,-20.50067c0,-7.51684 1.22939,-14.351 3.82598,-20.50067c2.46057,-6.15056 6.01455,-11.34463 10.66103,-15.71819c4.64648,-4.23668 10.25033,-7.65375 16.8107,-9.97743c6.56036,-2.32279 13.80431,-3.55308 21.86786,-3.55308v99.90854c-8.06355,0 -15.30749,-1.23029 -21.73095,-3.68909zM79.13409,3.55308c6.56036,2.32369 12.16332,5.74076 16.8107,9.97743c4.64736,4.37356 8.20044,9.56763 10.79702,15.71819c2.46057,6.14967 3.69086,12.98382 3.69086,20.50067c0,7.51684 -1.23029,14.351 -3.82777,20.50067c-2.59659,6.15145 -6.14967,11.48151 -10.79702,15.85508c-4.64648,4.37356 -10.25033,7.79065 -16.67379,10.11432c-6.56036,2.45881 -13.80431,3.68909 -21.86786,3.68909v-99.90853c8.06355,0 15.30749,1.23029 21.86786,3.55308z M130.52442,10.52412l27.06103,87.33452h-54.39585zM197.35828,68.47395l-33.07558,29.3847h-2.18678l-29.65851,-95.67187h44.41931l20.50156,66.28715zM256.81218,97.85865h-45.78738l-29.65762,-95.67187h45.78648z M281.00194,96.21945c-6.56036,-2.32369 -12.16243,-5.74076 -16.80981,-10.11432c-4.64737,-4.37356 -8.20133,-9.70364 -10.79702,-15.85508c-2.59748,-6.14967 -3.82777,-12.98382 -3.82777,-20.50067c0,-7.51684 1.23029,-14.351 3.82777,-20.50067c2.46057,-6.15056 6.01276,-11.34463 10.66014,-15.71819c4.64736,-4.23668 10.25122,-7.65375 16.81159,-9.97743c6.56036,-2.32279 13.80341,-3.55308 21.86786,-3.55308v99.90854c-8.06444,0 -15.30749,-1.23029 -21.73274,-3.68909zM328.42852,3.41707c6.42346,2.32279 12.02733,5.60298 16.81159,9.84053c4.64736,4.23668 8.33645,9.29384 10.93393,15.17061c2.59569,5.87677 3.82598,12.30023 3.82598,19.27127l-53.16555,0.1369v-47.83638c7.79065,0 15.0337,1.0934 21.59407,3.41707zM360,65.33065c0,6.42346 -0.6827,11.89042 -2.18678,16.26399c-1.50231,4.51047 -3.82598,8.06444 -7.24307,10.66014c-3.41707,2.73437 -7.79065,4.64736 -13.25762,5.87766c-5.60385,1.23029 -12.43801,1.7761 -20.50067,1.7761h-9.15782l-0.81961,-47.97239l53.16555,0.1369v13.25762z"/>
</svg>
