<?xml version="1.0" encoding="UTF-8"?>
<svg xmlns="http://www.w3.org/2000/svg" viewBox="0 0 360 360" fill="currentColor">
  <path d="M90,180c49.7055,0 90,-40.2945 90,-90c0,-49.7055 -40.2945,-90 -90,-90c-49.7055,0 -90,40.2945 -90,90c0,49.7055 40.2945,90 90,90z M270,180c49.7055,0 90,-40.2945 90,-90c0,-49.7055 -40.2945,-90 -90,-90c-49.7055,0 -90,40.2945 -90,90c0,49.7055 40.2945,90 90,90z M90,360c49.7055,0 90,-40.2945 90,-90c0,-49.7055 -40.2945,-90 -90,-90c-49.7055,0 -90,40.2945 -90,90c0,49.7055 40.2945,90 90,90z M270,360c49.7055,0 90,-40.2945 90,-90c0,-49.7055 -40.2945,-90 -90,-90c-49.7055,0 -90,40.2945 -90,90c0,49.7055 40.2945,90 90,90z"/>
</svg>
